HIERARCHY
ROOT Hips
{
    OFFSET 0.000 95.729 0.000
    CHANNELS 6 Xposition Yposition Zposition Yrotation Xrotation Zrotation
    JOINT RightUpLeg
    {
        OFFSET -9.625 -1.639 0.000
        CHANNELS 6 Xposition Yposition Zposition Yrotation Xrotation Zrotation
        JOINT RightLeg
        {
            OFFSET 0.000 -41.481 0.000
            CHANNELS 6 Xposition Yposition Zposition Yrotation Xrotation Zrotation
            JOINT RightFoot
            {
                OFFSET 0.000 -43.120 0.000
                CHANNELS 6 Xposition Yposition Zposition Yrotation Xrotation Zrotation
                End Site
                {
                    OFFSET 0.000 -7.850 17.850
                }
            }
        }
    }
    JOINT LeftUpLeg
    {
        OFFSET 9.625 -1.639 0.000
        CHANNELS 6 Xposition Yposition Zposition Yrotation Xrotation Zrotation
        JOINT LeftLeg
        {
            OFFSET 0.000 -43.120 0.000
            CHANNELS 6 Xposition Yposition Zposition Yrotation Xrotation Zrotation
            JOINT LeftFoot
            {
                OFFSET 0.000 -43.120 0.000
                CHANNELS 6 Xposition Yposition Zposition Yrotation Xrotation Zrotation
                End Site
                {
                    OFFSET 0.000 -7.850 17.850
                }
            }
        }
    }
    JOINT Spine
    {
        OFFSET 0.000 16.395 0.000
        CHANNELS 6 Xposition Yposition Zposition Yrotation Xrotation Zrotation
        JOINT Spine1
        {
            OFFSET 0.000 10.023 0.000
            CHANNELS 6 Xposition Yposition Zposition Yrotation Xrotation Zrotation
            JOINT Spine2
            {
                OFFSET 0.000 10.437 0.000
                CHANNELS 6 Xposition Yposition Zposition Yrotation Xrotation Zrotation
                JOINT Spine3
                {
                    OFFSET 0.000 10.023 0.000
                    CHANNELS 6 Xposition Yposition Zposition Yrotation Xrotation Zrotation
                    JOINT Neck
                    {
                        OFFSET 0.000 10.713 0.000
                        CHANNELS 6 Xposition Yposition Zposition Yrotation Xrotation Zrotation
                        JOINT Head
                        {
                            OFFSET 0.000 9.720 0.000
                            CHANNELS 6 Xposition Yposition Zposition Yrotation Xrotation Zrotation
                            End Site
                            {
                                OFFSET 0.000 16.450 0.000
                            }
                        }
                    }
                    JOINT RightShoulder
                    {
                        OFFSET -3.275 7.142 0.000
                        CHANNELS 6 Xposition Yposition Zposition Yrotation Xrotation Zrotation
                        JOINT RightArm
                        {
                            OFFSET -13.100 0.000 0.000
                            CHANNELS 6 Xposition Yposition Zposition Yrotation Xrotation Zrotation
                            JOINT RightForeArm
                            {
                                OFFSET -27.250 0.000 0.000
                                CHANNELS 6 Xposition Yposition Zposition Yrotation Xrotation Zrotation
                                JOINT RightHand
                                {
                                    OFFSET -26.750 0.000 0.000
                                    CHANNELS 6 Xposition Yposition Zposition Yrotation Xrotation Zrotation
                                    JOINT RightHandThumb1
                                    {
                                        OFFSET -2.560 0.196 3.210
                                        CHANNELS 6 Xposition Yposition Zposition Yrotation Xrotation Zrotation
                                        JOINT RightHandThumb2
                                        {
                                            OFFSET -3.788 0.000 0.000
                                            CHANNELS 6 Xposition Yposition Zposition Yrotation Xrotation Zrotation
                                            JOINT RightHandThumb3
                                            {
                                                OFFSET -2.631 0.000 0.000
                                                CHANNELS 6 Xposition Yposition Zposition Yrotation Xrotation Zrotation
                                                End Site
                                                {
                                                    OFFSET -2.256 0.000 0.000
                                                }
                                            }
                                        }
                                    }
                                    JOINT RightInHandIndex
                                    {
                                        OFFSET -3.316 0.523 2.035
                                        CHANNELS 6 Xposition Yposition Zposition Yrotation Xrotation Zrotation
                                        JOINT RightHandIndex1
                                        {
                                            OFFSET -5.366 -0.094 1.028
                                            CHANNELS 6 Xposition Yposition Zposition Yrotation Xrotation Zrotation
                                            JOINT RightHandIndex2
                                            {
                                                OFFSET -3.723 0.000 0.000
                                                CHANNELS 6 Xposition Yposition Zposition Yrotation Xrotation Zrotation
                                                JOINT RightHandIndex3
                                                {
                                                    OFFSET -2.111 0.000 0.000
                                                    CHANNELS 6 Xposition Yposition Zposition Yrotation Xrotation Zrotation
                                                    End Site
                                                    {
                                                        OFFSET -1.857 0.000 0.000
                                                    }
                                                }
                                            }
                                        }
                                    }
                                    JOINT RightInHandMiddle
                                    {
                                        OFFSET -3.479 0.532 0.778
                                        CHANNELS 6 Xposition Yposition Zposition Yrotation Xrotation Zrotation
                                        JOINT RightHandMiddle1
                                        {
                                            OFFSET -5.322 -0.086 0.323
                                            CHANNELS 6 Xposition Yposition Zposition Yrotation Xrotation Zrotation
                                            JOINT RightHandMiddle2
                                            {
                                                OFFSET -4.062 0.000 0.000
                                                CHANNELS 6 Xposition Yposition Zposition Yrotation Xrotation Zrotation
                                                JOINT RightHandMiddle3
                                                {
                                                    OFFSET -2.547 0.000 0.000
                                                    CHANNELS 6 Xposition Yposition Zposition Yrotation Xrotation Zrotation
                                                    End Site
                                                    {
                                                        OFFSET -2.031 0.000 0.000
                                                    }
                                                }
                                            }
                                        }
                                    }
                                    JOINT RightInHandRing
                                    {
                                        OFFSET -3.461 0.553 -0.133
                                        CHANNELS 6 Xposition Yposition Zposition Yrotation Xrotation Zrotation
                                        JOINT RightHandRing1
                                        {
                                            OFFSET -4.767 -0.023 -0.493
                                            CHANNELS 6 Xposition Yposition Zposition Yrotation Xrotation Zrotation
                                            JOINT RightHandRing2
                                            {
                                                OFFSET -3.541 0.000 0.000
                                                CHANNELS 6 Xposition Yposition Zposition Yrotation Xrotation Zrotation
                                                JOINT RightHandRing3
                                                {
                                                    OFFSET -2.456 0.000 0.000
                                                    CHANNELS 6 Xposition Yposition Zposition Yrotation Xrotation Zrotation
                                                    End Site
                                                    {
                                                        OFFSET -1.910 0.000 0.000
                                                    }
                                                }
                                            }
                                        }
                                    }
                                    JOINT RightInHandPinky
                                    {
                                        OFFSET -3.251 0.483 -1.236
                                        CHANNELS 6 Xposition Yposition Zposition Yrotation Xrotation Zrotation
                                        JOINT RightHandPinky1
                                        {
                                            OFFSET -4.259 -0.023 -1.122
                                            CHANNELS 6 Xposition Yposition Zposition Yrotation Xrotation Zrotation
                                            JOINT RightHandPinky2
                                            {
                                                OFFSET -2.835 0.000 0.000
                                                CHANNELS 6 Xposition Yposition Zposition Yrotation Xrotation Zrotation
                                                JOINT RightHandPinky3
                                                {
                                                    OFFSET -1.792 0.000 0.000
                                                    CHANNELS 6 Xposition Yposition Zposition Yrotation Xrotation Zrotation
                                                    End Site
                                                    {
                                                        OFFSET -1.692 0.000 0.000
                                                    }
                                                }
                                            }
                                        }
                                    }
                                }
                            }
                        }
                    }
                    JOINT LeftShoulder
                    {
                        OFFSET 3.275 7.142 0.000
                        CHANNELS 6 Xposition Yposition Zposition Yrotation Xrotation Zrotation
                        JOINT LeftArm
                        {
                            OFFSET 13.100 0.000 0.000
                            CHANNELS 6 Xposition Yposition Zposition Yrotation Xrotation Zrotation
                            JOINT LeftForeArm
                            {
                                OFFSET 27.250 0.000 0.000
                                CHANNELS 6 Xposition Yposition Zposition Yrotation Xrotation Zrotation
                                JOINT LeftHand
                                {
                                    OFFSET 26.750 0.000 0.000
                                    CHANNELS 6 Xposition Yposition Zposition Yrotation Xrotation Zrotation
                                    JOINT LeftHandThumb1
                                    {
                                        OFFSET 2.560 0.196 3.210
                                        CHANNELS 6 Xposition Yposition Zposition Yrotation Xrotation Zrotation
                                        JOINT LeftHandThumb2
                                        {
                                            OFFSET 3.788 0.000 0.000
                                            CHANNELS 6 Xposition Yposition Zposition Yrotation Xrotation Zrotation
                                            JOINT LeftHandThumb3
                                            {
                                                OFFSET 2.631 0.000 0.000
                                                CHANNELS 6 Xposition Yposition Zposition Yrotation Xrotation Zrotation
                                                End Site
                                                {
                                                    OFFSET 2.256 0.000 0.000
                                                }
                                            }
                                        }
                                    }
                                    JOINT LeftInHandIndex
                                    {
                                        OFFSET 3.316 0.523 2.035
                                        CHANNELS 6 Xposition Yposition Zposition Yrotation Xrotation Zrotation
                                        JOINT LeftHandIndex1
                                        {
                                            OFFSET 5.366 -0.094 1.028
                                            CHANNELS 6 Xposition Yposition Zposition Yrotation Xrotation Zrotation
                                            JOINT LeftHandIndex2
                                            {
                                                OFFSET 3.723 0.000 0.000
                                                CHANNELS 6 Xposition Yposition Zposition Yrotation Xrotation Zrotation
                                                JOINT LeftHandIndex3
                                                {
                                                    OFFSET 2.111 0.000 0.000
                                                    CHANNELS 6 Xposition Yposition Zposition Yrotation Xrotation Zrotation
                                                    End Site
                                                    {
                                                        OFFSET 1.857 0.000 0.000
                                                    }
                                                }
                                            }
                                        }
                                    }
                                    JOINT LeftInHandMiddle
                                    {
                                        OFFSET 3.479 0.532 0.778
                                        CHANNELS 6 Xposition Yposition Zposition Yrotation Xrotation Zrotation
                                        JOINT LeftHandMiddle1
                                        {
                                            OFFSET 5.322 -0.086 0.323
                                            CHANNELS 6 Xposition Yposition Zposition Yrotation Xrotation Zrotation
                                            JOINT LeftHandMiddle2
                                            {
                                                OFFSET 4.062 0.000 0.000
                                                CHANNELS 6 Xposition Yposition Zposition Yrotation Xrotation Zrotation
                                                JOINT LeftHandMiddle3
                                                {
                                                    OFFSET 2.547 0.000 0.000
                                                    CHANNELS 6 Xposition Yposition Zposition Yrotation Xrotation Zrotation
                                                    End Site
                                                    {
                                                        OFFSET 2.031 0.000 0.000
                                                    }
                                                }
                                            }
                                        }
                                    }
                                    JOINT LeftInHandRing
                                    {
                                        OFFSET 3.461 0.553 -0.133
                                        CHANNELS 6 Xposition Yposition Zposition Yrotation Xrotation Zrotation
                                        JOINT LeftHandRing1
                                        {
                                            OFFSET 4.767 -0.023 -0.493
                                            CHANNELS 6 Xposition Yposition Zposition Yrotation Xrotation Zrotation
                                            JOINT LeftHandRing2
                                            {
                                                OFFSET 3.541 0.000 0.000
                                                CHANNELS 6 Xposition Yposition Zposition Yrotation Xrotation Zrotation
                                                JOINT LeftHandRing3
                                                {
                                                    OFFSET 2.456 0.000 0.000
                                                    CHANNELS 6 Xposition Yposition Zposition Yrotation Xrotation Zrotation
                                                    End Site
                                                    {
                                                        OFFSET 1.910 0.000 0.000
                                                    }
                                                }
                                            }
                                        }
                                    }
                                    JOINT LeftInHandPinky
                                    {
                                        OFFSET 3.251 0.483 -1.236
                                        CHANNELS 6 Xposition Yposition Zposition Yrotation Xrotation Zrotation
                                        JOINT LeftHandPinky1
                                        {
                                            OFFSET 4.259 -0.023 -1.122
                                            CHANNELS 6 Xposition Yposition Zposition Yrotation Xrotation Zrotation
                                            JOINT LeftHandPinky2
                                            {
                                                OFFSET 2.835 0.000 0.000
                                                CHANNELS 6 Xposition Yposition Zposition Yrotation Xrotation Zrotation
                                                JOINT LeftHandPinky3
                                                {
                                                    OFFSET 1.792 0.000 0.000
                                                    CHANNELS 6 Xposition Yposition Zposition Yrotation Xrotation Zrotation
                                                    End Site
                                                    {
                                                        OFFSET 1.692 0.000 0.000
                                                    }
                                                }
                                            }
                                        }
                                    }
                                }
                            }
                        }
                    }
                }
            }
        }
    }
}
MOTION

Frames: 2
Frame Time: 0.008
-0.89 78.79 3.53 123.49 15.68 1.61 -9.60 -1.72 -0.14 -8.94 -48.26 -10.27 0.08 -41.34 -0.11 40.66 56.53 58.68 -0.36 -42.23 -1.65 -6.92 -33.90 -13.89 9.55 -1.83 0.01 10.89 -56.49 -1.13 0.09 -43.45 -0.12 -49.33 75.07 -50.65 1.80 -43.56 1.47 -2.15 -34.91 0.80 0.03 16.40 -0.00 1.08 4.25 -4.84 0.02 10.02 0.01 0.25 1.06 -1.22 0.05 10.44 0.02 0.36 1.78 -2.02 0.02 10.03 0.03 -0.24 -0.61 0.26 -0.05 10.69 -0.29 -0.25 -0.61 0.26 -0.08 9.77 -0.30 -5.35 -10.94 5.31 -3.26 7.16 0.01 0.24 0.60 -0.37 -13.09 0.02 -0.01 38.85 -25.39 76.58 -27.24 -0.05 0.00 9.13 -24.51 0.94 -26.76 -0.06 -0.03 7.51 0.77 -11.55 -2.56 0.20 3.21 21.86 -0.00 30.00 -3.79 0.00 0.00 -10.00 -0.00 0.00 -2.63 0.00 0.00 -10.00 -0.00 0.00 -3.32 0.52 2.03 0.00 -0.00 0.00 -5.37 -0.09 1.03 2.55 -0.00 20.00 -3.72 0.00 0.00 0.00 -0.00 24.00 -2.11 0.00 0.00 0.00 -0.00 20.00 -3.48 0.53 0.78 0.00 -0.00 0.00 -5.32 -0.09 0.32 0.00 -0.00 20.00 -4.06 0.00 0.00 0.00 -0.00 24.00 -2.55 0.00 0.00 0.00 -0.00 20.00 -3.46 0.55 -0.13 0.00 -0.00 0.00 -4.77 -0.02 -0.49 -3.00 -0.00 20.00 -3.54 0.00 0.00 0.00 -0.00 24.00 -2.46 0.00 0.00 0.00 -0.00 20.00 -3.25 0.48 -1.24 0.00 -0.00 0.00 -4.26 -0.02 -1.12 -8.83 -0.00 20.00 -2.84 0.00 0.00 0.00 -0.00 24.00 -1.79 0.00 0.00 0.00 -0.00 20.00 3.29 7.14 -0.02 -5.72 -4.83 -6.14 13.04 -0.02 -0.06 -43.89 -6.56 -61.82 27.25 -0.12 0.01 -15.82 -31.67 -2.97 26.75 -0.06 -0.12 -4.07 1.17 1.56 2.56 0.20 3.21 -21.86 -0.00 -30.00 3.79 0.00 0.00 10.00 -0.00 0.00 2.63 0.00 0.00 10.00 -0.00 0.00 3.32 0.52 2.03 0.00 -0.00 0.00 5.37 -0.09 1.03 -2.55 -0.00 -20.00 3.72 0.00 0.00 0.00 -0.00 -24.00 2.11 0.00 0.00 0.00 -0.00 -20.00 3.48 0.53 0.78 0.00 -0.00 0.00 5.32 -0.09 0.32 0.00 -0.00 -20.00 4.06 0.00 0.00 0.00 -0.00 -24.00 2.55 0.00 0.00 0.00 -0.00 -20.00 3.46 0.55 -0.13 0.00 -0.00 0.00 4.77 -0.02 -0.49 3.00 -0.00 -20.00 3.54 0.00 0.00 0.00 -0.00 -24.00 2.46 0.00 0.00 0.00 -0.00 -20.00 3.25 0.48 -1.24 0.00 -0.00 0.00 4.26 -0.02 -1.12 8.83 -0.00 -20.00 2.84 0.00 0.00 0.00 -0.00 -24.00 1.79 0.00 0.00 0.00 -0.00 -20.00 
-0.89 78.08 3.57 123.49 15.68 1.61 -9.60 -1.70 -0.11 -8.14 -48.97 -11.38 0.16 -41.10 -0.13 41.65 56.81 60.33 -0.10 -42.34 -1.96 -6.81 -33.71 -13.79 9.55 -1.83 -0.01 11.38 -57.25 -1.15 0.06 -43.42 -0.12 -54.42 75.78 -55.92 1.82 -43.52 1.52 -2.51 -35.39 1.03 0.03 16.39 0.09 1.11 4.46 -4.85 0.02 10.02 0.03 0.25 1.12 -1.22 0.05 10.44 0.02 0.36 1.86 -2.03 0.02 10.03 0.03 -0.24 -0.63 0.27 -0.05 10.69 -0.29 -0.25 -0.63 0.27 -0.07 9.77 -0.30 -5.41 -11.22 5.35 -3.26 7.16 0.01 0.24 0.61 -0.37 -13.09 0.02 -0.00 39.18 -25.89 76.33 -27.24 -0.05 0.01 9.03 -24.94 0.78 -26.75 -0.06 -0.03 7.57 0.75 -11.87 -2.56 0.20 3.21 21.86 -0.00 30.00 -3.79 0.00 0.00 -10.00 -0.00 0.00 -2.63 0.00 0.00 -10.00 -0.00 0.00 -3.32 0.52 2.03 0.00 -0.00 0.00 -5.37 -0.09 1.03 2.55 -0.00 20.00 -3.72 0.00 0.00 0.00 -0.00 24.00 -2.11 0.00 0.00 0.00 -0.00 20.00 -3.48 0.53 0.78 0.00 -0.00 0.00 -5.32 -0.09 0.32 0.00 -0.00 20.00 -4.06 0.00 0.00 0.00 -0.00 24.00 -2.55 0.00 0.00 0.00 -0.00 20.00 -3.46 0.55 -0.13 0.00 -0.00 0.00 -4.77 -0.02 -0.49 -3.00 -0.00 20.00 -3.54 0.00 0.00 0.00 -0.00 24.00 -2.46 0.00 0.00 0.00 -0.00 20.00 -3.25 0.48 -1.24 0.00 -0.00 0.00 -4.26 -0.02 -1.12 -8.83 -0.00 20.00 -2.84 0.00 0.00 0.00 -0.00 24.00 -1.79 0.00 0.00 0.00 -0.00 20.00 3.29 7.14 -0.02 -5.94 -5.08 -6.05 12.97 -0.03 -0.03 -43.75 -6.65 -61.77 27.25 -0.15 0.09 -15.91 -31.85 -2.89 26.75 -0.06 -0.12 -4.16 1.00 1.68 2.56 0.20 3.21 -21.86 -0.00 -30.00 3.79 0.00 0.00 10.00 -0.00 0.00 2.63 0.00 0.00 10.00 -0.00 0.00 3.32 0.52 2.03 0.00 -0.00 0.00 5.37 -0.09 1.03 -2.55 -0.00 -20.00 3.72 0.00 0.00 0.00 -0.00 -24.00 2.11 0.00 0.00 0.00 -0.00 -20.00 3.48 0.53 0.78 0.00 -0.00 0.00 5.32 -0.09 0.32 0.00 -0.00 -20.00 4.06 0.00 0.00 0.00 -0.00 -24.00 2.55 0.00 0.00 0.00 -0.00 -20.00 3.46 0.55 -0.13 0.00 -0.00 0.00 4.77 -0.02 -0.49 3.00 -0.00 -20.00 3.54 0.00 0.00 0.00 -0.00 -24.00 2.46 0.00 0.00 0.00 -0.00 -20.00 3.25 0.48 -1.24 0.00 -0.00 0.00 4.26 -0.02 -1.12 8.83 -0.00 -20.00 2.84 0.00 0.00 0.00 -0.00 -24.00 1.79 0.00 0.00 0.00 -0.00 -20.00 
